<?xml version="1.0" encoding="UTF-8" standalone="no"?>
<!-- Created with Inkscape (http://www.inkscape.org/) -->

<svg
   version="1.1"
   id="svg9"
   width="130"
   height="110"
   viewBox="0 0 130 110"
   sodipodi:docname="5220995.ai"
   xmlns:inkscape="http://www.inkscape.org/namespaces/inkscape"
   xmlns:sodipodi="http://sodipodi.sourceforge.net/DTD/sodipodi-0.dtd"
   xmlns="http://www.w3.org/2000/svg"
   xmlns:svg="http://www.w3.org/2000/svg">
  <defs
     id="defs13">
    <clipPath
       clipPathUnits="userSpaceOnUse"
       id="clipPath551">
      <path
         d="m 223.472,110.682 c -5.573,-9.909 -9.555,-17.154 -12.261,-22.144 v 0 c -2.19,-4.043 0.743,-8.951 5.339,-8.951 v 0 c 2.303,0 4.407,1.295 5.429,3.36 v 0 c 3.341,6.751 12.201,21.624 26.785,25.182 v 0 c 9.619,2.292 18.407,2.33 26.015,1.271 v 0 c -0.244,0.431 -0.473,0.839 -0.72,1.282 v 0 c -12.532,22.276 -17.172,32.022 -25.295,32.022 v 0 c -8.121,0 -12.761,-9.746 -25.292,-32.022"
         id="path549" />
    </clipPath>
    <linearGradient
       x1="0"
       y1="0"
       x2="1"
       y2="0"
       gradientUnits="userSpaceOnUse"
       gradientTransform="matrix(64.307091,0,0,-64.307091,210.47101,111.14545)"
       spreadMethod="pad"
       id="linearGradient561">
      <stop
         style="stop-opacity:1;stop-color:#55f3ff"
         offset="0"
         id="stop557" />
      <stop
         style="stop-opacity:1;stop-color:#1d65d8"
         offset="1"
         id="stop559" />
    </linearGradient>
    <clipPath
       clipPathUnits="userSpaceOnUse"
       id="clipPath571">
      <path
         d="m 248.764,108.129 c 12.821,-3.127 21.814,-15.96 26.172,-23.767 v 0 c 0.28,-0.502 0.617,-0.958 0.975,-1.391 v 0 c 7.567,6.062 6.618,12.823 6.618,18.096 v 0 c 0,-0.797 -0.647,-1.444 -1.445,-1.444 v 0 c -0.521,0 -0.999,0.281 -1.255,0.732 v 0 c -1.15,2.073 -2.408,4.329 -3.766,6.75 v 0 l -0.152,0.275 v -0.003 c -0.374,0.67 -0.741,1.326 -1.132,2.023 v 0 c -3.034,0.422 -6.257,0.67 -9.644,0.67 v 0 c -5.107,0 -10.588,-0.563 -16.371,-1.941"
         id="path569" />
    </clipPath>
    <linearGradient
       x1="0"
       y1="0"
       x2="1"
       y2="0"
       gradientUnits="userSpaceOnUse"
       gradientTransform="matrix(0,27.099377,27.099377,0,265.66592,82.970497)"
       spreadMethod="pad"
       id="linearGradient581">
      <stop
         style="stop-opacity:1;stop-color:#55f3ff"
         offset="0"
         id="stop577" />
      <stop
         style="stop-opacity:1;stop-color:#1d65d8"
         offset="1"
         id="stop579" />
    </linearGradient>
    <clipPath
       clipPathUnits="userSpaceOnUse"
       id="clipPath591">
      <path
         d="m 282.529,122.198 v -21.131 c 0,-5.273 0.949,-12.034 -6.618,-18.096 v 0 c 1.693,-2.043 4.181,-3.298 6.877,-3.38 v 0 c 5.279,-0.161 9.603,4.419 9.603,9.7 v 0 32.907 c 0,2.722 -2.209,4.93 -4.932,4.93 v 0 c -2.722,0 -4.93,-2.208 -4.93,-4.93"
         id="path589" />
    </clipPath>
    <linearGradient
       x1="0"
       y1="0"
       x2="1"
       y2="0"
       gradientUnits="userSpaceOnUse"
       gradientTransform="matrix(0,47.541016,47.541016,0,284.151,79.586784)"
       spreadMethod="pad"
       id="linearGradient601">
      <stop
         style="stop-opacity:1;stop-color:#1d65d8"
         offset="0"
         id="stop597" />
      <stop
         style="stop-opacity:1;stop-color:#55f3ff"
         offset="1"
         id="stop599" />
    </linearGradient>
    <clipPath
       clipPathUnits="userSpaceOnUse"
       id="clipPath611">
      <path
         d="m 282.567,137.792 c 0,-2.712 2.199,-4.912 4.912,-4.912 v 0 c 2.712,0 4.912,2.2 4.912,4.912 v 0 c 0,2.713 -2.2,4.912 -4.912,4.912 v 0 c -2.713,0 -4.912,-2.199 -4.912,-4.912"
         id="path609" />
    </clipPath>
    <linearGradient
       x1="0"
       y1="0"
       x2="1"
       y2="0"
       gradientUnits="userSpaceOnUse"
       gradientTransform="matrix(9.8237,0,0,-9.8237,282.56671,137.79245)"
       spreadMethod="pad"
       id="linearGradient621">
      <stop
         style="stop-opacity:1;stop-color:#55f3ff"
         offset="0"
         id="stop617" />
      <stop
         style="stop-opacity:1;stop-color:#1d65d8"
         offset="1"
         id="stop619" />
    </linearGradient>
  </defs>
  <sodipodi:namedview
     id="namedview11"
     pagecolor="#ffffff"
     bordercolor="#000000"
     borderopacity="0.25"
     inkscape:showpageshadow="2"
     inkscape:pageopacity="0.0"
     inkscape:pagecheckerboard="0"
     inkscape:deskcolor="#d1d1d1"
     showgrid="false" />
  <g
     id="g17"
     inkscape:groupmode="layer"
     inkscape:label="Page 1"
     transform="matrix(1.3333333,0,0,-1.3333333,0,666.66667)">
    <g
       id="g938"
       transform="matrix(-1,0,0,1,300.62852,346.77421)">
      <g
         id="g545">
        <g
           id="g547"
           clip-path="url(#clipPath551)">
          <g
             id="g553">
            <g
               id="g555">
              <path
                 d="m 223.472,110.682 c -5.573,-9.909 -9.555,-17.154 -12.261,-22.144 v 0 c -2.19,-4.043 0.743,-8.951 5.339,-8.951 v 0 c 2.303,0 4.407,1.295 5.429,3.36 v 0 c 3.341,6.751 12.201,21.624 26.785,25.182 v 0 c 9.619,2.292 18.407,2.33 26.015,1.271 v 0 c -0.244,0.431 -0.473,0.839 -0.72,1.282 v 0 c -12.532,22.276 -17.172,32.022 -25.295,32.022 v 0 c -8.121,0 -12.761,-9.746 -25.292,-32.022"
                 style="fill:url(#linearGradient561);stroke:none"
                 id="path563" />
            </g>
          </g>
        </g>
      </g>
      <g
         id="g565">
        <g
           id="g567"
           clip-path="url(#clipPath571)">
          <g
             id="g573">
            <g
               id="g575">
              <path
                 d="m 248.764,108.129 c 12.821,-3.127 21.814,-15.96 26.172,-23.767 v 0 c 0.28,-0.502 0.617,-0.958 0.975,-1.391 v 0 c 7.567,6.062 6.618,12.823 6.618,18.096 v 0 c 0,-0.797 -0.647,-1.444 -1.445,-1.444 v 0 c -0.521,0 -0.999,0.281 -1.255,0.732 v 0 c -1.15,2.073 -2.408,4.329 -3.766,6.75 v 0 l -0.152,0.275 v -0.003 c -0.374,0.67 -0.741,1.326 -1.132,2.023 v 0 c -3.034,0.422 -6.257,0.67 -9.644,0.67 v 0 c -5.107,0 -10.588,-0.563 -16.371,-1.941"
                 style="fill:url(#linearGradient581);stroke:none"
                 id="path583" />
            </g>
          </g>
        </g>
      </g>
      <g
         id="g585">
        <g
           id="g587"
           clip-path="url(#clipPath591)">
          <g
             id="g593">
            <g
               id="g595">
              <path
                 d="m 282.529,122.198 v -21.131 c 0,-5.273 0.949,-12.034 -6.618,-18.096 v 0 c 1.693,-2.043 4.181,-3.298 6.877,-3.38 v 0 c 5.279,-0.161 9.603,4.419 9.603,9.7 v 0 32.907 c 0,2.722 -2.209,4.93 -4.932,4.93 v 0 c -2.722,0 -4.93,-2.208 -4.93,-4.93"
                 style="fill:url(#linearGradient601);stroke:none"
                 id="path603" />
            </g>
          </g>
        </g>
      </g>
      <g
         id="g605">
        <g
           id="g607"
           clip-path="url(#clipPath611)">
          <g
             id="g613">
            <g
               id="g615">
              <path
                 d="m 282.567,137.792 c 0,-2.712 2.199,-4.912 4.912,-4.912 v 0 c 2.712,0 4.912,2.2 4.912,4.912 v 0 c 0,2.713 -2.2,4.912 -4.912,4.912 v 0 c -2.713,0 -4.912,-2.199 -4.912,-4.912"
                 style="fill:url(#linearGradient621);stroke:none"
                 id="path623" />
            </g>
          </g>
        </g>
      </g>
    </g>
  </g>
</svg>
